G04 EAGLE Gerber RS-274X export*
G75*
%MOMM*%
%FSLAX34Y34*%
%LPD*%
%IN*%
%IPPOS*%
%AMOC8*
5,1,8,0,0,1.08239X$1,22.5*%
G01*
%ADD10C,0.254000*%


D10*
X0Y25400D02*
X97Y23186D01*
X386Y20989D01*
X865Y18826D01*
X1532Y16713D01*
X2380Y14666D01*
X3403Y12700D01*
X4594Y10831D01*
X5942Y9073D01*
X7440Y7440D01*
X9073Y5942D01*
X10831Y4594D01*
X12700Y3403D01*
X14666Y2380D01*
X16713Y1532D01*
X18826Y865D01*
X20989Y386D01*
X23186Y97D01*
X25400Y0D01*
X806600Y0D01*
X808814Y97D01*
X811011Y386D01*
X813174Y865D01*
X815287Y1532D01*
X817335Y2380D01*
X819300Y3403D01*
X821169Y4594D01*
X822927Y5942D01*
X824561Y7440D01*
X826058Y9073D01*
X827406Y10831D01*
X828597Y12700D01*
X829620Y14666D01*
X830468Y16713D01*
X831135Y18826D01*
X831614Y20989D01*
X831903Y23186D01*
X832000Y25400D01*
X832000Y558000D01*
X831924Y559743D01*
X831696Y561473D01*
X831319Y563176D01*
X830794Y564840D01*
X830126Y566452D01*
X829321Y568000D01*
X828383Y569472D01*
X827321Y570856D01*
X826142Y572142D01*
X824856Y573321D01*
X823472Y574383D01*
X822000Y575321D01*
X820452Y576126D01*
X818840Y576794D01*
X817176Y577319D01*
X815473Y577696D01*
X813743Y577924D01*
X812000Y578000D01*
X25400Y578000D01*
X23186Y577903D01*
X20989Y577614D01*
X18826Y577135D01*
X16713Y576468D01*
X14666Y575620D01*
X12700Y574597D01*
X10831Y573406D01*
X9073Y572058D01*
X7440Y570561D01*
X5942Y568927D01*
X4594Y567169D01*
X3403Y565300D01*
X2380Y563335D01*
X1532Y561287D01*
X865Y559174D01*
X386Y557011D01*
X97Y554814D01*
X0Y552600D01*
X0Y25400D01*
X40334Y188700D02*
X39906Y188768D01*
X39494Y188901D01*
X39109Y189098D01*
X38759Y189352D01*
X38452Y189659D01*
X38198Y190009D01*
X38001Y190394D01*
X37868Y190806D01*
X37800Y191234D01*
X37800Y191666D01*
X37868Y192094D01*
X38001Y192506D01*
X38198Y192891D01*
X38452Y193242D01*
X38759Y193548D01*
X39109Y193802D01*
X39494Y193999D01*
X39906Y194132D01*
X40334Y194200D01*
X40766Y194200D01*
X41194Y194132D01*
X41606Y193999D01*
X41991Y193802D01*
X42342Y193548D01*
X42648Y193242D01*
X42902Y192891D01*
X43099Y192506D01*
X43232Y192094D01*
X43300Y191666D01*
X43300Y191234D01*
X43232Y190806D01*
X43099Y190394D01*
X42902Y190009D01*
X42648Y189659D01*
X42342Y189352D01*
X41991Y189098D01*
X41606Y188901D01*
X41194Y188768D01*
X40766Y188700D01*
X40334Y188700D01*
X40334Y148700D02*
X39906Y148768D01*
X39494Y148901D01*
X39109Y149098D01*
X38759Y149352D01*
X38452Y149659D01*
X38198Y150009D01*
X38001Y150394D01*
X37868Y150806D01*
X37800Y151234D01*
X37800Y151666D01*
X37868Y152094D01*
X38001Y152506D01*
X38198Y152891D01*
X38452Y153242D01*
X38759Y153548D01*
X39109Y153802D01*
X39494Y153999D01*
X39906Y154132D01*
X40334Y154200D01*
X40766Y154200D01*
X41194Y154132D01*
X41606Y153999D01*
X41991Y153802D01*
X42342Y153548D01*
X42648Y153242D01*
X42902Y152891D01*
X43099Y152506D01*
X43232Y152094D01*
X43300Y151666D01*
X43300Y151234D01*
X43232Y150806D01*
X43099Y150394D01*
X42902Y150009D01*
X42648Y149659D01*
X42342Y149352D01*
X41991Y149098D01*
X41606Y148901D01*
X41194Y148768D01*
X40766Y148700D01*
X40334Y148700D01*
M02*
