G04 EAGLE Gerber RS-274X export*
G75*
%MOMM*%
%FSLAX34Y34*%
%LPD*%
%INSilkscreen Top*%
%IPPOS*%
%AMOC8*
5,1,8,0,0,1.08239X$1,22.5*%
G01*
%ADD10C,0.076200*%
%ADD11C,0.200000*%
%ADD12C,0.127000*%
%ADD13C,0.101600*%
%ADD14C,0.240000*%
%ADD15C,0.063400*%
%ADD16C,0.250000*%

G36*
X805511Y10135D02*
X805511Y10135D01*
X805540Y10133D01*
X806197Y10220D01*
X806233Y10233D01*
X806293Y10245D01*
X806906Y10499D01*
X806936Y10521D01*
X806991Y10549D01*
X807518Y10952D01*
X807542Y10982D01*
X807588Y11022D01*
X807991Y11549D01*
X808007Y11583D01*
X808041Y11635D01*
X808295Y12247D01*
X808301Y12285D01*
X808319Y12338D01*
X808319Y12339D01*
X808320Y12343D01*
X808407Y13000D01*
X808405Y13022D01*
X808410Y13050D01*
X808410Y18111D01*
X808527Y19294D01*
X808866Y20414D01*
X809418Y21446D01*
X810160Y22350D01*
X811064Y23092D01*
X812096Y23644D01*
X813216Y23983D01*
X814399Y24100D01*
X819460Y24100D01*
X819481Y24105D01*
X819510Y24103D01*
X820167Y24190D01*
X820203Y24203D01*
X820263Y24215D01*
X820876Y24469D01*
X820906Y24491D01*
X820961Y24519D01*
X821488Y24922D01*
X821512Y24952D01*
X821558Y24992D01*
X821961Y25519D01*
X821977Y25553D01*
X822011Y25605D01*
X822265Y26217D01*
X822271Y26255D01*
X822290Y26313D01*
X822377Y26970D01*
X822375Y26992D01*
X822380Y27020D01*
X822380Y34640D01*
X822375Y34661D01*
X822377Y34690D01*
X822290Y35347D01*
X822277Y35383D01*
X822265Y35443D01*
X822011Y36056D01*
X821989Y36086D01*
X821961Y36141D01*
X821558Y36668D01*
X821528Y36692D01*
X821488Y36738D01*
X820961Y37141D01*
X820927Y37157D01*
X820876Y37191D01*
X820263Y37445D01*
X820226Y37451D01*
X820167Y37470D01*
X819510Y37557D01*
X819488Y37555D01*
X819460Y37560D01*
X811840Y37560D01*
X811819Y37555D01*
X811790Y37557D01*
X811133Y37470D01*
X811097Y37457D01*
X811037Y37445D01*
X810425Y37191D01*
X810394Y37169D01*
X810339Y37141D01*
X809812Y36738D01*
X809788Y36708D01*
X809742Y36668D01*
X809339Y36141D01*
X809323Y36107D01*
X809289Y36056D01*
X809035Y35443D01*
X809029Y35406D01*
X809010Y35347D01*
X808923Y34690D01*
X808925Y34668D01*
X808920Y34640D01*
X808920Y29579D01*
X808803Y28396D01*
X808464Y27276D01*
X807912Y26244D01*
X807170Y25340D01*
X806266Y24598D01*
X805234Y24046D01*
X804114Y23707D01*
X802931Y23590D01*
X797870Y23590D01*
X797849Y23585D01*
X797820Y23587D01*
X797163Y23500D01*
X797127Y23487D01*
X797067Y23475D01*
X796455Y23221D01*
X796424Y23199D01*
X796369Y23171D01*
X795842Y22768D01*
X795818Y22738D01*
X795772Y22698D01*
X795369Y22171D01*
X795353Y22137D01*
X795319Y22086D01*
X795065Y21473D01*
X795059Y21436D01*
X795040Y21377D01*
X794953Y20720D01*
X794955Y20698D01*
X794950Y20670D01*
X794950Y13050D01*
X794955Y13029D01*
X794953Y13000D01*
X795040Y12343D01*
X795047Y12323D01*
X795047Y12311D01*
X795055Y12296D01*
X795065Y12247D01*
X795319Y11635D01*
X795341Y11604D01*
X795369Y11549D01*
X795772Y11022D01*
X795777Y11019D01*
X795777Y11018D01*
X795784Y11013D01*
X795802Y10998D01*
X795842Y10952D01*
X796369Y10549D01*
X796403Y10533D01*
X796455Y10499D01*
X797067Y10245D01*
X797105Y10239D01*
X797163Y10220D01*
X797820Y10133D01*
X797842Y10135D01*
X797870Y10130D01*
X805490Y10130D01*
X805511Y10135D01*
G37*
G36*
X791541Y24105D02*
X791541Y24105D01*
X791570Y24103D01*
X792227Y24190D01*
X792263Y24203D01*
X792323Y24215D01*
X792936Y24469D01*
X792966Y24491D01*
X793021Y24519D01*
X793548Y24922D01*
X793572Y24952D01*
X793618Y24992D01*
X794021Y25519D01*
X794037Y25553D01*
X794071Y25605D01*
X794325Y26217D01*
X794331Y26255D01*
X794349Y26307D01*
X794349Y26309D01*
X794350Y26313D01*
X794437Y26970D01*
X794435Y26992D01*
X794440Y27020D01*
X794440Y34640D01*
X794435Y34661D01*
X794437Y34690D01*
X794350Y35347D01*
X794337Y35383D01*
X794325Y35443D01*
X794071Y36056D01*
X794049Y36086D01*
X794021Y36141D01*
X793618Y36668D01*
X793588Y36692D01*
X793548Y36738D01*
X793021Y37141D01*
X792987Y37157D01*
X792936Y37191D01*
X792323Y37445D01*
X792286Y37451D01*
X792227Y37470D01*
X791570Y37557D01*
X791548Y37555D01*
X791520Y37560D01*
X783900Y37560D01*
X783879Y37555D01*
X783850Y37557D01*
X783193Y37470D01*
X783157Y37457D01*
X783097Y37445D01*
X782485Y37191D01*
X782454Y37169D01*
X782399Y37141D01*
X781872Y36738D01*
X781848Y36708D01*
X781802Y36668D01*
X781399Y36141D01*
X781383Y36107D01*
X781349Y36056D01*
X781095Y35443D01*
X781089Y35406D01*
X781070Y35347D01*
X780983Y34690D01*
X780985Y34668D01*
X780980Y34640D01*
X780980Y27020D01*
X780985Y26999D01*
X780983Y26970D01*
X781070Y26313D01*
X781077Y26293D01*
X781077Y26281D01*
X781085Y26266D01*
X781095Y26217D01*
X781349Y25605D01*
X781371Y25574D01*
X781399Y25519D01*
X781802Y24992D01*
X781807Y24989D01*
X781807Y24988D01*
X781814Y24983D01*
X781832Y24968D01*
X781872Y24922D01*
X782399Y24519D01*
X782433Y24503D01*
X782485Y24469D01*
X783097Y24215D01*
X783135Y24209D01*
X783193Y24190D01*
X783850Y24103D01*
X783872Y24105D01*
X783900Y24100D01*
X791520Y24100D01*
X791541Y24105D01*
G37*
D10*
X762381Y13937D02*
X763566Y10381D01*
X764752Y13937D01*
X768652Y15715D02*
X768724Y15713D01*
X768796Y15707D01*
X768868Y15697D01*
X768939Y15684D01*
X769009Y15666D01*
X769078Y15645D01*
X769146Y15620D01*
X769212Y15592D01*
X769277Y15560D01*
X769340Y15524D01*
X769401Y15485D01*
X769459Y15443D01*
X769516Y15398D01*
X769569Y15349D01*
X769620Y15298D01*
X769669Y15245D01*
X769714Y15188D01*
X769756Y15130D01*
X769795Y15069D01*
X769831Y15006D01*
X769863Y14941D01*
X769891Y14875D01*
X769916Y14807D01*
X769937Y14738D01*
X769955Y14668D01*
X769968Y14597D01*
X769978Y14525D01*
X769984Y14453D01*
X769986Y14381D01*
X768652Y15715D02*
X768572Y15713D01*
X768493Y15708D01*
X768413Y15698D01*
X768335Y15685D01*
X768257Y15669D01*
X768179Y15649D01*
X768103Y15625D01*
X768028Y15597D01*
X767955Y15567D01*
X767883Y15533D01*
X767812Y15495D01*
X767744Y15454D01*
X767677Y15410D01*
X767612Y15364D01*
X767550Y15314D01*
X767490Y15261D01*
X767433Y15205D01*
X767378Y15147D01*
X767326Y15087D01*
X767277Y15024D01*
X767231Y14959D01*
X767188Y14892D01*
X767148Y14823D01*
X767112Y14752D01*
X767078Y14679D01*
X767049Y14605D01*
X767022Y14530D01*
X769541Y13344D02*
X769592Y13395D01*
X769640Y13449D01*
X769686Y13505D01*
X769729Y13564D01*
X769769Y13624D01*
X769805Y13687D01*
X769839Y13751D01*
X769869Y13817D01*
X769896Y13884D01*
X769919Y13953D01*
X769939Y14022D01*
X769956Y14093D01*
X769969Y14164D01*
X769978Y14236D01*
X769983Y14309D01*
X769985Y14381D01*
X769541Y13344D02*
X767022Y10381D01*
X769986Y10381D01*
X772196Y10381D02*
X772196Y10677D01*
X772493Y10677D01*
X772493Y10381D01*
X772196Y10381D01*
X774703Y13048D02*
X774705Y13173D01*
X774710Y13297D01*
X774719Y13421D01*
X774731Y13545D01*
X774747Y13669D01*
X774766Y13792D01*
X774789Y13915D01*
X774816Y14037D01*
X774845Y14158D01*
X774878Y14278D01*
X774915Y14397D01*
X774955Y14515D01*
X774998Y14632D01*
X775045Y14747D01*
X775095Y14862D01*
X775148Y14974D01*
X775171Y15035D01*
X775197Y15094D01*
X775227Y15152D01*
X775260Y15207D01*
X775297Y15261D01*
X775336Y15312D01*
X775378Y15361D01*
X775424Y15407D01*
X775472Y15451D01*
X775522Y15492D01*
X775575Y15529D01*
X775629Y15564D01*
X775686Y15595D01*
X775745Y15623D01*
X775805Y15647D01*
X775866Y15668D01*
X775928Y15685D01*
X775992Y15698D01*
X776056Y15707D01*
X776120Y15713D01*
X776185Y15715D01*
X776250Y15713D01*
X776314Y15707D01*
X776378Y15698D01*
X776442Y15685D01*
X776504Y15668D01*
X776565Y15647D01*
X776625Y15623D01*
X776684Y15595D01*
X776741Y15564D01*
X776795Y15529D01*
X776848Y15492D01*
X776898Y15451D01*
X776946Y15407D01*
X776992Y15361D01*
X777034Y15312D01*
X777073Y15261D01*
X777110Y15207D01*
X777143Y15152D01*
X777173Y15094D01*
X777199Y15035D01*
X777222Y14974D01*
X777275Y14862D01*
X777325Y14747D01*
X777372Y14632D01*
X777415Y14515D01*
X777455Y14397D01*
X777492Y14278D01*
X777525Y14158D01*
X777554Y14037D01*
X777581Y13915D01*
X777604Y13792D01*
X777623Y13669D01*
X777639Y13545D01*
X777651Y13421D01*
X777660Y13297D01*
X777665Y13173D01*
X777667Y13048D01*
X774703Y13048D02*
X774705Y12923D01*
X774710Y12799D01*
X774719Y12675D01*
X774731Y12551D01*
X774747Y12427D01*
X774766Y12304D01*
X774789Y12181D01*
X774816Y12060D01*
X774845Y11939D01*
X774878Y11818D01*
X774915Y11699D01*
X774955Y11581D01*
X774998Y11464D01*
X775045Y11349D01*
X775095Y11234D01*
X775148Y11122D01*
X775171Y11061D01*
X775197Y11002D01*
X775227Y10944D01*
X775260Y10889D01*
X775297Y10835D01*
X775336Y10784D01*
X775378Y10735D01*
X775424Y10689D01*
X775472Y10645D01*
X775522Y10604D01*
X775575Y10567D01*
X775629Y10532D01*
X775686Y10501D01*
X775745Y10473D01*
X775805Y10449D01*
X775866Y10428D01*
X775928Y10411D01*
X775992Y10398D01*
X776056Y10389D01*
X776120Y10383D01*
X776185Y10381D01*
X777222Y11122D02*
X777275Y11234D01*
X777325Y11349D01*
X777372Y11464D01*
X777415Y11581D01*
X777455Y11699D01*
X777492Y11818D01*
X777525Y11939D01*
X777554Y12060D01*
X777581Y12181D01*
X777604Y12304D01*
X777623Y12427D01*
X777639Y12551D01*
X777651Y12675D01*
X777660Y12799D01*
X777665Y12923D01*
X777667Y13048D01*
X777222Y11122D02*
X777199Y11061D01*
X777173Y11002D01*
X777143Y10944D01*
X777110Y10889D01*
X777073Y10835D01*
X777034Y10784D01*
X776992Y10735D01*
X776946Y10689D01*
X776898Y10645D01*
X776848Y10604D01*
X776795Y10567D01*
X776741Y10532D01*
X776684Y10501D01*
X776625Y10473D01*
X776565Y10449D01*
X776504Y10428D01*
X776442Y10411D01*
X776378Y10398D01*
X776314Y10389D01*
X776250Y10383D01*
X776185Y10381D01*
X775000Y11566D02*
X777370Y14530D01*
X20381Y555333D02*
X20381Y560667D01*
X22752Y560667D01*
X22752Y558296D02*
X20381Y558296D01*
X25167Y560667D02*
X25167Y555333D01*
X25167Y560667D02*
X26649Y560667D01*
X26725Y560665D01*
X26801Y560659D01*
X26877Y560649D01*
X26952Y560636D01*
X27026Y560618D01*
X27100Y560597D01*
X27172Y560572D01*
X27242Y560543D01*
X27312Y560511D01*
X27379Y560475D01*
X27444Y560435D01*
X27508Y560393D01*
X27569Y560347D01*
X27627Y560298D01*
X27683Y560246D01*
X27737Y560192D01*
X27787Y560134D01*
X27834Y560075D01*
X27879Y560012D01*
X27920Y559948D01*
X27957Y559882D01*
X27991Y559813D01*
X28022Y559743D01*
X28049Y559672D01*
X28072Y559599D01*
X28091Y559525D01*
X28107Y559451D01*
X28119Y559375D01*
X28127Y559299D01*
X28131Y559223D01*
X28131Y559147D01*
X28127Y559071D01*
X28119Y558995D01*
X28107Y558919D01*
X28091Y558845D01*
X28072Y558771D01*
X28049Y558698D01*
X28022Y558627D01*
X27991Y558557D01*
X27957Y558488D01*
X27920Y558422D01*
X27879Y558358D01*
X27834Y558295D01*
X27787Y558236D01*
X27737Y558178D01*
X27683Y558124D01*
X27627Y558072D01*
X27569Y558023D01*
X27508Y557977D01*
X27444Y557935D01*
X27379Y557895D01*
X27312Y557859D01*
X27242Y557827D01*
X27172Y557798D01*
X27100Y557773D01*
X27026Y557752D01*
X26952Y557734D01*
X26877Y557721D01*
X26801Y557711D01*
X26725Y557705D01*
X26649Y557703D01*
X26649Y557704D02*
X25167Y557704D01*
X26945Y557704D02*
X28131Y555333D01*
X30608Y556518D02*
X31794Y560667D01*
X30608Y556518D02*
X33572Y556518D01*
X32683Y555333D02*
X32683Y557704D01*
D11*
X146398Y374735D02*
X146400Y374798D01*
X146406Y374860D01*
X146416Y374922D01*
X146429Y374984D01*
X146447Y375044D01*
X146468Y375103D01*
X146493Y375161D01*
X146522Y375217D01*
X146554Y375271D01*
X146589Y375323D01*
X146627Y375372D01*
X146669Y375420D01*
X146713Y375464D01*
X146761Y375506D01*
X146810Y375544D01*
X146862Y375579D01*
X146916Y375611D01*
X146972Y375640D01*
X147030Y375665D01*
X147089Y375686D01*
X147149Y375704D01*
X147211Y375717D01*
X147273Y375727D01*
X147335Y375733D01*
X147398Y375735D01*
X147461Y375733D01*
X147523Y375727D01*
X147585Y375717D01*
X147647Y375704D01*
X147707Y375686D01*
X147766Y375665D01*
X147824Y375640D01*
X147880Y375611D01*
X147934Y375579D01*
X147986Y375544D01*
X148035Y375506D01*
X148083Y375464D01*
X148127Y375420D01*
X148169Y375372D01*
X148207Y375323D01*
X148242Y375271D01*
X148274Y375217D01*
X148303Y375161D01*
X148328Y375103D01*
X148349Y375044D01*
X148367Y374984D01*
X148380Y374922D01*
X148390Y374860D01*
X148396Y374798D01*
X148398Y374735D01*
X148396Y374672D01*
X148390Y374610D01*
X148380Y374548D01*
X148367Y374486D01*
X148349Y374426D01*
X148328Y374367D01*
X148303Y374309D01*
X148274Y374253D01*
X148242Y374199D01*
X148207Y374147D01*
X148169Y374098D01*
X148127Y374050D01*
X148083Y374006D01*
X148035Y373964D01*
X147986Y373926D01*
X147934Y373891D01*
X147880Y373859D01*
X147824Y373830D01*
X147766Y373805D01*
X147707Y373784D01*
X147647Y373766D01*
X147585Y373753D01*
X147523Y373743D01*
X147461Y373737D01*
X147398Y373735D01*
X147335Y373737D01*
X147273Y373743D01*
X147211Y373753D01*
X147149Y373766D01*
X147089Y373784D01*
X147030Y373805D01*
X146972Y373830D01*
X146916Y373859D01*
X146862Y373891D01*
X146810Y373926D01*
X146761Y373964D01*
X146713Y374006D01*
X146669Y374050D01*
X146627Y374098D01*
X146589Y374147D01*
X146554Y374199D01*
X146522Y374253D01*
X146493Y374309D01*
X146468Y374367D01*
X146447Y374426D01*
X146429Y374486D01*
X146416Y374548D01*
X146406Y374610D01*
X146400Y374672D01*
X146398Y374735D01*
D12*
X149700Y369300D02*
X129700Y369300D01*
X129700Y341900D02*
X149700Y341900D01*
D13*
X140208Y398724D02*
X140208Y407162D01*
X140208Y398724D02*
X140210Y398611D01*
X140216Y398498D01*
X140226Y398385D01*
X140240Y398272D01*
X140257Y398160D01*
X140279Y398049D01*
X140304Y397939D01*
X140334Y397829D01*
X140367Y397721D01*
X140404Y397614D01*
X140444Y397508D01*
X140489Y397404D01*
X140537Y397301D01*
X140588Y397200D01*
X140643Y397101D01*
X140701Y397004D01*
X140763Y396909D01*
X140828Y396816D01*
X140896Y396726D01*
X140967Y396638D01*
X141042Y396552D01*
X141119Y396469D01*
X141199Y396389D01*
X141282Y396312D01*
X141368Y396237D01*
X141456Y396166D01*
X141546Y396098D01*
X141639Y396033D01*
X141734Y395971D01*
X141831Y395913D01*
X141930Y395858D01*
X142031Y395807D01*
X142134Y395759D01*
X142238Y395714D01*
X142344Y395674D01*
X142451Y395637D01*
X142559Y395604D01*
X142669Y395574D01*
X142779Y395549D01*
X142890Y395527D01*
X143002Y395510D01*
X143115Y395496D01*
X143228Y395486D01*
X143341Y395480D01*
X143454Y395478D01*
X143567Y395480D01*
X143680Y395486D01*
X143793Y395496D01*
X143906Y395510D01*
X144018Y395527D01*
X144129Y395549D01*
X144239Y395574D01*
X144349Y395604D01*
X144457Y395637D01*
X144564Y395674D01*
X144670Y395714D01*
X144774Y395759D01*
X144877Y395807D01*
X144978Y395858D01*
X145077Y395913D01*
X145174Y395971D01*
X145269Y396033D01*
X145362Y396098D01*
X145452Y396166D01*
X145540Y396237D01*
X145626Y396312D01*
X145709Y396389D01*
X145789Y396469D01*
X145866Y396552D01*
X145941Y396638D01*
X146012Y396726D01*
X146080Y396816D01*
X146145Y396909D01*
X146207Y397004D01*
X146265Y397101D01*
X146320Y397200D01*
X146371Y397301D01*
X146419Y397404D01*
X146464Y397508D01*
X146504Y397614D01*
X146541Y397721D01*
X146574Y397829D01*
X146604Y397939D01*
X146629Y398049D01*
X146651Y398160D01*
X146668Y398272D01*
X146682Y398385D01*
X146692Y398498D01*
X146698Y398611D01*
X146700Y398724D01*
X146699Y398724D02*
X146699Y407162D01*
X152019Y404566D02*
X155265Y407162D01*
X155265Y395478D01*
X158510Y395478D02*
X152019Y395478D01*
X222758Y375158D02*
X234442Y375158D01*
X222758Y375158D02*
X222758Y378404D01*
X222760Y378517D01*
X222766Y378630D01*
X222776Y378743D01*
X222790Y378856D01*
X222807Y378968D01*
X222829Y379079D01*
X222854Y379189D01*
X222884Y379299D01*
X222917Y379407D01*
X222954Y379514D01*
X222994Y379620D01*
X223039Y379724D01*
X223087Y379827D01*
X223138Y379928D01*
X223193Y380027D01*
X223251Y380124D01*
X223313Y380219D01*
X223378Y380312D01*
X223446Y380402D01*
X223517Y380490D01*
X223592Y380576D01*
X223669Y380659D01*
X223749Y380739D01*
X223832Y380816D01*
X223918Y380891D01*
X224006Y380962D01*
X224096Y381030D01*
X224189Y381095D01*
X224284Y381157D01*
X224381Y381215D01*
X224480Y381270D01*
X224581Y381321D01*
X224684Y381369D01*
X224788Y381414D01*
X224894Y381454D01*
X225001Y381491D01*
X225109Y381524D01*
X225219Y381554D01*
X225329Y381579D01*
X225440Y381601D01*
X225552Y381618D01*
X225665Y381632D01*
X225778Y381642D01*
X225891Y381648D01*
X226004Y381650D01*
X226117Y381648D01*
X226230Y381642D01*
X226343Y381632D01*
X226456Y381618D01*
X226568Y381601D01*
X226679Y381579D01*
X226789Y381554D01*
X226899Y381524D01*
X227007Y381491D01*
X227114Y381454D01*
X227220Y381414D01*
X227324Y381369D01*
X227427Y381321D01*
X227528Y381270D01*
X227627Y381215D01*
X227724Y381157D01*
X227819Y381095D01*
X227912Y381030D01*
X228002Y380962D01*
X228090Y380891D01*
X228176Y380816D01*
X228259Y380739D01*
X228339Y380659D01*
X228416Y380576D01*
X228491Y380490D01*
X228562Y380402D01*
X228630Y380312D01*
X228695Y380219D01*
X228757Y380124D01*
X228815Y380027D01*
X228870Y379928D01*
X228921Y379827D01*
X228969Y379724D01*
X229014Y379620D01*
X229054Y379514D01*
X229091Y379407D01*
X229124Y379299D01*
X229154Y379189D01*
X229179Y379079D01*
X229201Y378968D01*
X229218Y378856D01*
X229232Y378743D01*
X229242Y378630D01*
X229248Y378517D01*
X229250Y378404D01*
X229249Y378404D02*
X229249Y375158D01*
X229249Y379053D02*
X234442Y381649D01*
X225354Y386514D02*
X222758Y389760D01*
X234442Y389760D01*
X234442Y393005D02*
X234442Y386514D01*
X69342Y291451D02*
X69342Y288854D01*
X69340Y288755D01*
X69334Y288655D01*
X69325Y288556D01*
X69312Y288458D01*
X69295Y288360D01*
X69274Y288262D01*
X69249Y288166D01*
X69221Y288071D01*
X69189Y287977D01*
X69154Y287884D01*
X69115Y287792D01*
X69072Y287702D01*
X69027Y287614D01*
X68977Y287527D01*
X68925Y287443D01*
X68869Y287360D01*
X68811Y287280D01*
X68749Y287202D01*
X68684Y287127D01*
X68616Y287054D01*
X68546Y286984D01*
X68473Y286916D01*
X68398Y286851D01*
X68320Y286789D01*
X68240Y286731D01*
X68157Y286675D01*
X68073Y286623D01*
X67986Y286573D01*
X67898Y286528D01*
X67808Y286485D01*
X67716Y286446D01*
X67623Y286411D01*
X67529Y286379D01*
X67434Y286351D01*
X67338Y286326D01*
X67240Y286305D01*
X67142Y286288D01*
X67044Y286275D01*
X66945Y286266D01*
X66845Y286260D01*
X66746Y286258D01*
X60254Y286258D01*
X60155Y286260D01*
X60055Y286266D01*
X59956Y286275D01*
X59858Y286288D01*
X59760Y286306D01*
X59662Y286326D01*
X59566Y286351D01*
X59470Y286379D01*
X59376Y286411D01*
X59283Y286446D01*
X59192Y286485D01*
X59102Y286528D01*
X59013Y286573D01*
X58927Y286623D01*
X58842Y286675D01*
X58760Y286731D01*
X58680Y286790D01*
X58602Y286851D01*
X58526Y286916D01*
X58453Y286984D01*
X58383Y287054D01*
X58315Y287127D01*
X58250Y287203D01*
X58189Y287281D01*
X58130Y287361D01*
X58074Y287443D01*
X58022Y287528D01*
X57973Y287614D01*
X57927Y287703D01*
X57884Y287793D01*
X57845Y287884D01*
X57810Y287977D01*
X57778Y288071D01*
X57750Y288167D01*
X57725Y288263D01*
X57705Y288361D01*
X57687Y288459D01*
X57674Y288557D01*
X57665Y288656D01*
X57659Y288755D01*
X57657Y288855D01*
X57658Y288854D02*
X57658Y291451D01*
X60254Y295816D02*
X57658Y299062D01*
X69342Y299062D01*
X69342Y302307D02*
X69342Y295816D01*
D12*
X261400Y132300D02*
X261400Y105800D01*
X261400Y132300D02*
X267400Y132300D01*
X297400Y132300D02*
X297400Y105800D01*
X297400Y132300D02*
X291400Y132300D01*
D14*
X262620Y84843D02*
X262622Y84912D01*
X262628Y84981D01*
X262638Y85049D01*
X262652Y85117D01*
X262669Y85184D01*
X262691Y85250D01*
X262716Y85314D01*
X262745Y85377D01*
X262778Y85438D01*
X262814Y85497D01*
X262853Y85554D01*
X262896Y85608D01*
X262941Y85660D01*
X262990Y85710D01*
X263041Y85756D01*
X263095Y85799D01*
X263152Y85840D01*
X263210Y85876D01*
X263271Y85910D01*
X263333Y85940D01*
X263397Y85966D01*
X263462Y85988D01*
X263529Y86007D01*
X263597Y86022D01*
X263665Y86033D01*
X263734Y86040D01*
X263803Y86043D01*
X263872Y86042D01*
X263941Y86037D01*
X264009Y86028D01*
X264077Y86015D01*
X264144Y85998D01*
X264211Y85978D01*
X264275Y85953D01*
X264338Y85925D01*
X264400Y85894D01*
X264459Y85858D01*
X264517Y85820D01*
X264572Y85778D01*
X264625Y85733D01*
X264675Y85685D01*
X264722Y85635D01*
X264766Y85581D01*
X264807Y85526D01*
X264845Y85468D01*
X264879Y85408D01*
X264910Y85346D01*
X264937Y85282D01*
X264960Y85217D01*
X264980Y85151D01*
X264996Y85083D01*
X265008Y85015D01*
X265016Y84947D01*
X265020Y84878D01*
X265020Y84808D01*
X265016Y84739D01*
X265008Y84671D01*
X264996Y84603D01*
X264980Y84535D01*
X264960Y84469D01*
X264937Y84404D01*
X264910Y84340D01*
X264879Y84278D01*
X264845Y84218D01*
X264807Y84160D01*
X264766Y84105D01*
X264722Y84051D01*
X264675Y84001D01*
X264625Y83953D01*
X264572Y83908D01*
X264517Y83866D01*
X264459Y83828D01*
X264400Y83792D01*
X264338Y83761D01*
X264275Y83733D01*
X264211Y83708D01*
X264144Y83688D01*
X264077Y83671D01*
X264009Y83658D01*
X263941Y83649D01*
X263872Y83644D01*
X263803Y83643D01*
X263734Y83646D01*
X263665Y83653D01*
X263597Y83664D01*
X263529Y83679D01*
X263462Y83698D01*
X263397Y83720D01*
X263333Y83746D01*
X263271Y83776D01*
X263210Y83810D01*
X263152Y83846D01*
X263095Y83887D01*
X263041Y83930D01*
X262990Y83976D01*
X262941Y84026D01*
X262896Y84078D01*
X262853Y84132D01*
X262814Y84189D01*
X262778Y84248D01*
X262745Y84309D01*
X262716Y84372D01*
X262691Y84436D01*
X262669Y84502D01*
X262652Y84569D01*
X262638Y84637D01*
X262628Y84705D01*
X262622Y84774D01*
X262620Y84843D01*
D13*
X326022Y111396D02*
X337708Y111396D01*
X326022Y111396D02*
X326022Y114642D01*
X326024Y114755D01*
X326030Y114868D01*
X326040Y114981D01*
X326054Y115094D01*
X326071Y115206D01*
X326093Y115317D01*
X326118Y115427D01*
X326148Y115537D01*
X326181Y115645D01*
X326218Y115752D01*
X326258Y115858D01*
X326303Y115962D01*
X326351Y116065D01*
X326402Y116166D01*
X326457Y116265D01*
X326515Y116362D01*
X326577Y116457D01*
X326642Y116550D01*
X326710Y116640D01*
X326781Y116728D01*
X326856Y116814D01*
X326933Y116897D01*
X327013Y116977D01*
X327096Y117054D01*
X327182Y117129D01*
X327270Y117200D01*
X327360Y117268D01*
X327453Y117333D01*
X327548Y117395D01*
X327645Y117453D01*
X327744Y117508D01*
X327845Y117559D01*
X327948Y117607D01*
X328052Y117652D01*
X328158Y117692D01*
X328265Y117729D01*
X328373Y117762D01*
X328483Y117792D01*
X328593Y117817D01*
X328704Y117839D01*
X328816Y117856D01*
X328929Y117870D01*
X329042Y117880D01*
X329155Y117886D01*
X329268Y117888D01*
X329381Y117886D01*
X329494Y117880D01*
X329607Y117870D01*
X329720Y117856D01*
X329832Y117839D01*
X329943Y117817D01*
X330053Y117792D01*
X330163Y117762D01*
X330271Y117729D01*
X330378Y117692D01*
X330484Y117652D01*
X330588Y117607D01*
X330691Y117559D01*
X330792Y117508D01*
X330891Y117453D01*
X330988Y117395D01*
X331083Y117333D01*
X331176Y117268D01*
X331266Y117200D01*
X331354Y117129D01*
X331440Y117054D01*
X331523Y116977D01*
X331603Y116897D01*
X331680Y116814D01*
X331755Y116728D01*
X331826Y116640D01*
X331894Y116550D01*
X331959Y116457D01*
X332021Y116362D01*
X332079Y116265D01*
X332134Y116166D01*
X332185Y116065D01*
X332233Y115962D01*
X332278Y115858D01*
X332318Y115752D01*
X332355Y115645D01*
X332388Y115537D01*
X332418Y115427D01*
X332443Y115317D01*
X332465Y115206D01*
X332482Y115094D01*
X332496Y114981D01*
X332506Y114868D01*
X332512Y114755D01*
X332514Y114642D01*
X332515Y114642D02*
X332515Y111396D01*
X332515Y115291D02*
X337708Y117888D01*
X328944Y129247D02*
X328837Y129245D01*
X328731Y129239D01*
X328624Y129229D01*
X328519Y129216D01*
X328413Y129198D01*
X328309Y129177D01*
X328205Y129152D01*
X328102Y129123D01*
X328001Y129091D01*
X327900Y129054D01*
X327801Y129014D01*
X327704Y128971D01*
X327608Y128924D01*
X327514Y128873D01*
X327422Y128819D01*
X327332Y128762D01*
X327244Y128701D01*
X327158Y128638D01*
X327075Y128571D01*
X326994Y128501D01*
X326916Y128429D01*
X326840Y128353D01*
X326768Y128275D01*
X326698Y128194D01*
X326631Y128111D01*
X326568Y128025D01*
X326507Y127937D01*
X326450Y127847D01*
X326396Y127755D01*
X326345Y127661D01*
X326298Y127565D01*
X326255Y127468D01*
X326215Y127369D01*
X326179Y127269D01*
X326146Y127167D01*
X326117Y127064D01*
X326092Y126960D01*
X326071Y126856D01*
X326053Y126751D01*
X326040Y126645D01*
X326030Y126538D01*
X326024Y126432D01*
X326022Y126325D01*
X326023Y126325D02*
X326025Y126204D01*
X326031Y126083D01*
X326041Y125963D01*
X326054Y125842D01*
X326072Y125723D01*
X326093Y125603D01*
X326118Y125485D01*
X326147Y125368D01*
X326180Y125251D01*
X326216Y125136D01*
X326257Y125022D01*
X326300Y124909D01*
X326348Y124797D01*
X326399Y124688D01*
X326454Y124580D01*
X326512Y124473D01*
X326573Y124369D01*
X326638Y124267D01*
X326706Y124167D01*
X326777Y124069D01*
X326851Y123973D01*
X326928Y123880D01*
X327009Y123790D01*
X327092Y123702D01*
X327178Y123617D01*
X327267Y123534D01*
X327358Y123455D01*
X327452Y123378D01*
X327548Y123305D01*
X327646Y123235D01*
X327747Y123168D01*
X327850Y123104D01*
X327955Y123043D01*
X328062Y122986D01*
X328170Y122933D01*
X328280Y122883D01*
X328392Y122836D01*
X328505Y122794D01*
X328620Y122755D01*
X331216Y128272D02*
X331139Y128351D01*
X331058Y128427D01*
X330976Y128500D01*
X330890Y128570D01*
X330802Y128637D01*
X330712Y128701D01*
X330620Y128761D01*
X330525Y128818D01*
X330429Y128872D01*
X330331Y128923D01*
X330231Y128970D01*
X330129Y129014D01*
X330026Y129054D01*
X329922Y129090D01*
X329816Y129122D01*
X329710Y129151D01*
X329602Y129176D01*
X329494Y129198D01*
X329384Y129215D01*
X329275Y129229D01*
X329165Y129238D01*
X329054Y129244D01*
X328944Y129246D01*
X331216Y128273D02*
X337708Y122754D01*
X337708Y129246D01*
X238704Y203708D02*
X238704Y215392D01*
X241949Y215392D02*
X235458Y215392D01*
X246126Y212796D02*
X249372Y215392D01*
X249372Y203708D01*
X252617Y203708D02*
X246126Y203708D01*
D15*
X279650Y264950D02*
X277900Y266700D01*
X279400Y268200D01*
X281150Y266450D01*
X279650Y264950D01*
D16*
X275400Y263950D03*
D13*
X301658Y252208D02*
X313342Y252208D01*
X313342Y257401D01*
X313342Y262114D02*
X313342Y267307D01*
X313342Y262114D02*
X301658Y262114D01*
X301658Y267307D01*
X306851Y266009D02*
X306851Y262114D01*
X301658Y271997D02*
X313342Y271997D01*
X301658Y271997D02*
X301658Y275243D01*
X301660Y275356D01*
X301666Y275469D01*
X301676Y275582D01*
X301690Y275695D01*
X301707Y275807D01*
X301729Y275918D01*
X301754Y276028D01*
X301784Y276138D01*
X301817Y276246D01*
X301854Y276353D01*
X301894Y276459D01*
X301939Y276563D01*
X301987Y276666D01*
X302038Y276767D01*
X302093Y276866D01*
X302151Y276963D01*
X302213Y277058D01*
X302278Y277151D01*
X302346Y277241D01*
X302417Y277329D01*
X302492Y277415D01*
X302569Y277498D01*
X302649Y277578D01*
X302732Y277655D01*
X302818Y277730D01*
X302906Y277801D01*
X302996Y277869D01*
X303089Y277934D01*
X303184Y277996D01*
X303281Y278054D01*
X303380Y278109D01*
X303481Y278160D01*
X303584Y278208D01*
X303688Y278253D01*
X303794Y278293D01*
X303901Y278330D01*
X304009Y278363D01*
X304119Y278393D01*
X304229Y278418D01*
X304340Y278440D01*
X304452Y278457D01*
X304565Y278471D01*
X304678Y278481D01*
X304791Y278487D01*
X304904Y278489D01*
X310096Y278489D01*
X310209Y278487D01*
X310322Y278481D01*
X310435Y278471D01*
X310548Y278457D01*
X310660Y278440D01*
X310771Y278418D01*
X310881Y278393D01*
X310991Y278363D01*
X311099Y278330D01*
X311206Y278293D01*
X311312Y278253D01*
X311416Y278208D01*
X311519Y278160D01*
X311620Y278109D01*
X311719Y278054D01*
X311816Y277996D01*
X311911Y277934D01*
X312004Y277869D01*
X312094Y277801D01*
X312182Y277730D01*
X312268Y277655D01*
X312351Y277578D01*
X312431Y277498D01*
X312508Y277415D01*
X312583Y277329D01*
X312654Y277241D01*
X312722Y277151D01*
X312787Y277058D01*
X312849Y276963D01*
X312907Y276866D01*
X312962Y276767D01*
X313013Y276666D01*
X313061Y276563D01*
X313106Y276459D01*
X313146Y276353D01*
X313183Y276246D01*
X313216Y276138D01*
X313246Y276028D01*
X313271Y275918D01*
X313293Y275807D01*
X313310Y275695D01*
X313324Y275582D01*
X313334Y275469D01*
X313340Y275356D01*
X313342Y275243D01*
X313342Y271997D01*
X304254Y283808D02*
X301658Y287054D01*
X313342Y287054D01*
X313342Y290299D02*
X313342Y283808D01*
X324358Y337058D02*
X336042Y337058D01*
X324358Y337058D02*
X324358Y340304D01*
X324360Y340417D01*
X324366Y340530D01*
X324376Y340643D01*
X324390Y340756D01*
X324407Y340868D01*
X324429Y340979D01*
X324454Y341089D01*
X324484Y341199D01*
X324517Y341307D01*
X324554Y341414D01*
X324594Y341520D01*
X324639Y341624D01*
X324687Y341727D01*
X324738Y341828D01*
X324793Y341927D01*
X324851Y342024D01*
X324913Y342119D01*
X324978Y342212D01*
X325046Y342302D01*
X325117Y342390D01*
X325192Y342476D01*
X325269Y342559D01*
X325349Y342639D01*
X325432Y342716D01*
X325518Y342791D01*
X325606Y342862D01*
X325696Y342930D01*
X325789Y342995D01*
X325884Y343057D01*
X325981Y343115D01*
X326080Y343170D01*
X326181Y343221D01*
X326284Y343269D01*
X326388Y343314D01*
X326494Y343354D01*
X326601Y343391D01*
X326709Y343424D01*
X326819Y343454D01*
X326929Y343479D01*
X327040Y343501D01*
X327152Y343518D01*
X327265Y343532D01*
X327378Y343542D01*
X327491Y343548D01*
X327604Y343550D01*
X327717Y343548D01*
X327830Y343542D01*
X327943Y343532D01*
X328056Y343518D01*
X328168Y343501D01*
X328279Y343479D01*
X328389Y343454D01*
X328499Y343424D01*
X328607Y343391D01*
X328714Y343354D01*
X328820Y343314D01*
X328924Y343269D01*
X329027Y343221D01*
X329128Y343170D01*
X329227Y343115D01*
X329324Y343057D01*
X329419Y342995D01*
X329512Y342930D01*
X329602Y342862D01*
X329690Y342791D01*
X329776Y342716D01*
X329859Y342639D01*
X329939Y342559D01*
X330016Y342476D01*
X330091Y342390D01*
X330162Y342302D01*
X330230Y342212D01*
X330295Y342119D01*
X330357Y342024D01*
X330415Y341927D01*
X330470Y341828D01*
X330521Y341727D01*
X330569Y341624D01*
X330614Y341520D01*
X330654Y341414D01*
X330691Y341307D01*
X330724Y341199D01*
X330754Y341089D01*
X330779Y340979D01*
X330801Y340868D01*
X330818Y340756D01*
X330832Y340643D01*
X330842Y340530D01*
X330848Y340417D01*
X330850Y340304D01*
X330849Y340304D02*
X330849Y337058D01*
X330849Y340953D02*
X336042Y343549D01*
X336042Y348414D02*
X336042Y351660D01*
X336040Y351773D01*
X336034Y351886D01*
X336024Y351999D01*
X336010Y352112D01*
X335993Y352224D01*
X335971Y352335D01*
X335946Y352445D01*
X335916Y352555D01*
X335883Y352663D01*
X335846Y352770D01*
X335806Y352876D01*
X335761Y352980D01*
X335713Y353083D01*
X335662Y353184D01*
X335607Y353283D01*
X335549Y353380D01*
X335487Y353475D01*
X335422Y353568D01*
X335354Y353658D01*
X335283Y353746D01*
X335208Y353832D01*
X335131Y353915D01*
X335051Y353995D01*
X334968Y354072D01*
X334882Y354147D01*
X334794Y354218D01*
X334704Y354286D01*
X334611Y354351D01*
X334516Y354413D01*
X334419Y354471D01*
X334320Y354526D01*
X334219Y354577D01*
X334116Y354625D01*
X334012Y354670D01*
X333906Y354710D01*
X333799Y354747D01*
X333691Y354780D01*
X333581Y354810D01*
X333471Y354835D01*
X333360Y354857D01*
X333248Y354874D01*
X333135Y354888D01*
X333022Y354898D01*
X332909Y354904D01*
X332796Y354906D01*
X332683Y354904D01*
X332570Y354898D01*
X332457Y354888D01*
X332344Y354874D01*
X332232Y354857D01*
X332121Y354835D01*
X332011Y354810D01*
X331901Y354780D01*
X331793Y354747D01*
X331686Y354710D01*
X331580Y354670D01*
X331476Y354625D01*
X331373Y354577D01*
X331272Y354526D01*
X331173Y354471D01*
X331076Y354413D01*
X330981Y354351D01*
X330888Y354286D01*
X330798Y354218D01*
X330710Y354147D01*
X330624Y354072D01*
X330541Y353995D01*
X330461Y353915D01*
X330384Y353832D01*
X330309Y353746D01*
X330238Y353658D01*
X330170Y353568D01*
X330105Y353475D01*
X330043Y353380D01*
X329985Y353283D01*
X329930Y353184D01*
X329879Y353083D01*
X329831Y352980D01*
X329786Y352876D01*
X329746Y352770D01*
X329709Y352663D01*
X329676Y352555D01*
X329646Y352445D01*
X329621Y352335D01*
X329599Y352224D01*
X329582Y352112D01*
X329568Y351999D01*
X329558Y351886D01*
X329552Y351773D01*
X329550Y351660D01*
X324358Y352309D02*
X324358Y348414D01*
X324358Y352309D02*
X324360Y352410D01*
X324366Y352510D01*
X324376Y352610D01*
X324389Y352710D01*
X324407Y352809D01*
X324428Y352908D01*
X324453Y353005D01*
X324482Y353102D01*
X324515Y353197D01*
X324551Y353291D01*
X324591Y353383D01*
X324634Y353474D01*
X324681Y353563D01*
X324731Y353650D01*
X324785Y353736D01*
X324842Y353819D01*
X324902Y353899D01*
X324965Y353978D01*
X325032Y354054D01*
X325101Y354127D01*
X325173Y354197D01*
X325247Y354265D01*
X325324Y354330D01*
X325404Y354391D01*
X325486Y354450D01*
X325570Y354505D01*
X325656Y354557D01*
X325744Y354606D01*
X325834Y354651D01*
X325926Y354693D01*
X326019Y354731D01*
X326114Y354765D01*
X326209Y354796D01*
X326306Y354823D01*
X326404Y354846D01*
X326503Y354866D01*
X326603Y354881D01*
X326703Y354893D01*
X326803Y354901D01*
X326904Y354905D01*
X327004Y354905D01*
X327105Y354901D01*
X327205Y354893D01*
X327305Y354881D01*
X327405Y354866D01*
X327504Y354846D01*
X327602Y354823D01*
X327699Y354796D01*
X327794Y354765D01*
X327889Y354731D01*
X327982Y354693D01*
X328074Y354651D01*
X328164Y354606D01*
X328252Y354557D01*
X328338Y354505D01*
X328422Y354450D01*
X328504Y354391D01*
X328584Y354330D01*
X328661Y354265D01*
X328735Y354197D01*
X328807Y354127D01*
X328876Y354054D01*
X328943Y353978D01*
X329006Y353899D01*
X329066Y353819D01*
X329123Y353736D01*
X329177Y353650D01*
X329227Y353563D01*
X329274Y353474D01*
X329317Y353383D01*
X329357Y353291D01*
X329393Y353197D01*
X329426Y353102D01*
X329455Y353005D01*
X329480Y352908D01*
X329501Y352809D01*
X329519Y352710D01*
X329532Y352610D01*
X329542Y352510D01*
X329548Y352410D01*
X329550Y352309D01*
X329551Y352309D02*
X329551Y349713D01*
D12*
X6350Y211950D02*
X4550Y211950D01*
X4550Y130950D01*
X6350Y130950D01*
X31750Y211950D02*
X47550Y211950D01*
X47550Y189650D01*
X47550Y153250D02*
X47550Y130950D01*
X31750Y130950D01*
D11*
X51050Y192450D02*
X51052Y192513D01*
X51058Y192575D01*
X51068Y192637D01*
X51081Y192699D01*
X51099Y192759D01*
X51120Y192818D01*
X51145Y192876D01*
X51174Y192932D01*
X51206Y192986D01*
X51241Y193038D01*
X51279Y193087D01*
X51321Y193135D01*
X51365Y193179D01*
X51413Y193221D01*
X51462Y193259D01*
X51514Y193294D01*
X51568Y193326D01*
X51624Y193355D01*
X51682Y193380D01*
X51741Y193401D01*
X51801Y193419D01*
X51863Y193432D01*
X51925Y193442D01*
X51987Y193448D01*
X52050Y193450D01*
X52113Y193448D01*
X52175Y193442D01*
X52237Y193432D01*
X52299Y193419D01*
X52359Y193401D01*
X52418Y193380D01*
X52476Y193355D01*
X52532Y193326D01*
X52586Y193294D01*
X52638Y193259D01*
X52687Y193221D01*
X52735Y193179D01*
X52779Y193135D01*
X52821Y193087D01*
X52859Y193038D01*
X52894Y192986D01*
X52926Y192932D01*
X52955Y192876D01*
X52980Y192818D01*
X53001Y192759D01*
X53019Y192699D01*
X53032Y192637D01*
X53042Y192575D01*
X53048Y192513D01*
X53050Y192450D01*
X53048Y192387D01*
X53042Y192325D01*
X53032Y192263D01*
X53019Y192201D01*
X53001Y192141D01*
X52980Y192082D01*
X52955Y192024D01*
X52926Y191968D01*
X52894Y191914D01*
X52859Y191862D01*
X52821Y191813D01*
X52779Y191765D01*
X52735Y191721D01*
X52687Y191679D01*
X52638Y191641D01*
X52586Y191606D01*
X52532Y191574D01*
X52476Y191545D01*
X52418Y191520D01*
X52359Y191499D01*
X52299Y191481D01*
X52237Y191468D01*
X52175Y191458D01*
X52113Y191452D01*
X52050Y191450D01*
X51987Y191452D01*
X51925Y191458D01*
X51863Y191468D01*
X51801Y191481D01*
X51741Y191499D01*
X51682Y191520D01*
X51624Y191545D01*
X51568Y191574D01*
X51514Y191606D01*
X51462Y191641D01*
X51413Y191679D01*
X51365Y191721D01*
X51321Y191765D01*
X51279Y191813D01*
X51241Y191862D01*
X51206Y191914D01*
X51174Y191968D01*
X51145Y192024D01*
X51120Y192082D01*
X51099Y192141D01*
X51081Y192201D01*
X51068Y192263D01*
X51058Y192325D01*
X51052Y192387D01*
X51050Y192450D01*
D13*
X70558Y199178D02*
X79646Y199178D01*
X79646Y199177D02*
X79745Y199175D01*
X79845Y199169D01*
X79944Y199160D01*
X80042Y199147D01*
X80140Y199130D01*
X80238Y199109D01*
X80334Y199084D01*
X80429Y199056D01*
X80523Y199024D01*
X80616Y198989D01*
X80708Y198950D01*
X80798Y198907D01*
X80886Y198862D01*
X80973Y198812D01*
X81057Y198760D01*
X81140Y198704D01*
X81220Y198646D01*
X81298Y198584D01*
X81373Y198519D01*
X81446Y198451D01*
X81516Y198381D01*
X81584Y198308D01*
X81649Y198233D01*
X81711Y198155D01*
X81769Y198075D01*
X81825Y197992D01*
X81877Y197908D01*
X81927Y197821D01*
X81972Y197733D01*
X82015Y197643D01*
X82054Y197551D01*
X82089Y197458D01*
X82121Y197364D01*
X82149Y197269D01*
X82174Y197173D01*
X82195Y197075D01*
X82212Y196977D01*
X82225Y196879D01*
X82234Y196780D01*
X82240Y196680D01*
X82242Y196581D01*
X82242Y195283D01*
X73154Y204451D02*
X70558Y207696D01*
X82242Y207696D01*
X82242Y204451D02*
X82242Y210942D01*
X191008Y238704D02*
X202692Y238704D01*
X191008Y235458D02*
X191008Y241949D01*
X191008Y246676D02*
X202692Y246676D01*
X191008Y246676D02*
X191008Y249922D01*
X191010Y250035D01*
X191016Y250148D01*
X191026Y250261D01*
X191040Y250374D01*
X191057Y250486D01*
X191079Y250597D01*
X191104Y250707D01*
X191134Y250817D01*
X191167Y250925D01*
X191204Y251032D01*
X191244Y251138D01*
X191289Y251242D01*
X191337Y251345D01*
X191388Y251446D01*
X191443Y251545D01*
X191501Y251642D01*
X191563Y251737D01*
X191628Y251830D01*
X191696Y251920D01*
X191767Y252008D01*
X191842Y252094D01*
X191919Y252177D01*
X191999Y252257D01*
X192082Y252334D01*
X192168Y252409D01*
X192256Y252480D01*
X192346Y252548D01*
X192439Y252613D01*
X192534Y252675D01*
X192631Y252733D01*
X192730Y252788D01*
X192831Y252839D01*
X192934Y252887D01*
X193038Y252932D01*
X193144Y252972D01*
X193251Y253009D01*
X193359Y253042D01*
X193469Y253072D01*
X193579Y253097D01*
X193690Y253119D01*
X193802Y253136D01*
X193915Y253150D01*
X194028Y253160D01*
X194141Y253166D01*
X194254Y253168D01*
X194367Y253166D01*
X194480Y253160D01*
X194593Y253150D01*
X194706Y253136D01*
X194818Y253119D01*
X194929Y253097D01*
X195039Y253072D01*
X195149Y253042D01*
X195257Y253009D01*
X195364Y252972D01*
X195470Y252932D01*
X195574Y252887D01*
X195677Y252839D01*
X195778Y252788D01*
X195877Y252733D01*
X195974Y252675D01*
X196069Y252613D01*
X196162Y252548D01*
X196252Y252480D01*
X196340Y252409D01*
X196426Y252334D01*
X196509Y252257D01*
X196589Y252177D01*
X196666Y252094D01*
X196741Y252008D01*
X196812Y251920D01*
X196880Y251830D01*
X196945Y251737D01*
X197007Y251642D01*
X197065Y251545D01*
X197120Y251446D01*
X197171Y251345D01*
X197219Y251242D01*
X197264Y251138D01*
X197304Y251032D01*
X197341Y250925D01*
X197374Y250817D01*
X197404Y250707D01*
X197429Y250597D01*
X197451Y250486D01*
X197468Y250374D01*
X197482Y250261D01*
X197492Y250148D01*
X197498Y250035D01*
X197500Y249922D01*
X197499Y249922D02*
X197499Y246676D01*
X193604Y257556D02*
X191008Y260801D01*
X202692Y260801D01*
X202692Y257556D02*
X202692Y264047D01*
X375158Y200604D02*
X386842Y200604D01*
X375158Y197358D02*
X375158Y203849D01*
X375158Y208576D02*
X386842Y208576D01*
X375158Y208576D02*
X375158Y211822D01*
X375160Y211935D01*
X375166Y212048D01*
X375176Y212161D01*
X375190Y212274D01*
X375207Y212386D01*
X375229Y212497D01*
X375254Y212607D01*
X375284Y212717D01*
X375317Y212825D01*
X375354Y212932D01*
X375394Y213038D01*
X375439Y213142D01*
X375487Y213245D01*
X375538Y213346D01*
X375593Y213445D01*
X375651Y213542D01*
X375713Y213637D01*
X375778Y213730D01*
X375846Y213820D01*
X375917Y213908D01*
X375992Y213994D01*
X376069Y214077D01*
X376149Y214157D01*
X376232Y214234D01*
X376318Y214309D01*
X376406Y214380D01*
X376496Y214448D01*
X376589Y214513D01*
X376684Y214575D01*
X376781Y214633D01*
X376880Y214688D01*
X376981Y214739D01*
X377084Y214787D01*
X377188Y214832D01*
X377294Y214872D01*
X377401Y214909D01*
X377509Y214942D01*
X377619Y214972D01*
X377729Y214997D01*
X377840Y215019D01*
X377952Y215036D01*
X378065Y215050D01*
X378178Y215060D01*
X378291Y215066D01*
X378404Y215068D01*
X378517Y215066D01*
X378630Y215060D01*
X378743Y215050D01*
X378856Y215036D01*
X378968Y215019D01*
X379079Y214997D01*
X379189Y214972D01*
X379299Y214942D01*
X379407Y214909D01*
X379514Y214872D01*
X379620Y214832D01*
X379724Y214787D01*
X379827Y214739D01*
X379928Y214688D01*
X380027Y214633D01*
X380124Y214575D01*
X380219Y214513D01*
X380312Y214448D01*
X380402Y214380D01*
X380490Y214309D01*
X380576Y214234D01*
X380659Y214157D01*
X380739Y214077D01*
X380816Y213994D01*
X380891Y213908D01*
X380962Y213820D01*
X381030Y213730D01*
X381095Y213637D01*
X381157Y213542D01*
X381215Y213445D01*
X381270Y213346D01*
X381321Y213245D01*
X381369Y213142D01*
X381414Y213038D01*
X381454Y212932D01*
X381491Y212825D01*
X381524Y212717D01*
X381554Y212607D01*
X381579Y212497D01*
X381601Y212386D01*
X381618Y212274D01*
X381632Y212161D01*
X381642Y212048D01*
X381648Y211935D01*
X381650Y211822D01*
X381649Y211822D02*
X381649Y208576D01*
X375158Y223026D02*
X375160Y223133D01*
X375166Y223239D01*
X375176Y223345D01*
X375189Y223451D01*
X375207Y223557D01*
X375228Y223661D01*
X375253Y223765D01*
X375282Y223868D01*
X375314Y223969D01*
X375351Y224069D01*
X375391Y224168D01*
X375434Y224266D01*
X375481Y224362D01*
X375532Y224456D01*
X375586Y224548D01*
X375643Y224638D01*
X375703Y224726D01*
X375767Y224811D01*
X375834Y224894D01*
X375904Y224975D01*
X375976Y225053D01*
X376052Y225129D01*
X376130Y225201D01*
X376211Y225271D01*
X376294Y225338D01*
X376379Y225402D01*
X376467Y225462D01*
X376557Y225519D01*
X376649Y225573D01*
X376743Y225624D01*
X376839Y225671D01*
X376937Y225714D01*
X377036Y225754D01*
X377136Y225791D01*
X377237Y225823D01*
X377340Y225852D01*
X377444Y225877D01*
X377548Y225898D01*
X377654Y225916D01*
X377760Y225929D01*
X377866Y225939D01*
X377972Y225945D01*
X378079Y225947D01*
X375158Y223026D02*
X375160Y222905D01*
X375166Y222784D01*
X375176Y222664D01*
X375189Y222543D01*
X375207Y222424D01*
X375228Y222304D01*
X375253Y222186D01*
X375282Y222069D01*
X375315Y221952D01*
X375351Y221837D01*
X375392Y221723D01*
X375435Y221610D01*
X375483Y221498D01*
X375534Y221389D01*
X375589Y221281D01*
X375647Y221174D01*
X375708Y221070D01*
X375773Y220968D01*
X375841Y220868D01*
X375912Y220770D01*
X375986Y220674D01*
X376063Y220581D01*
X376144Y220491D01*
X376227Y220403D01*
X376313Y220318D01*
X376402Y220235D01*
X376493Y220156D01*
X376587Y220079D01*
X376683Y220006D01*
X376781Y219936D01*
X376882Y219869D01*
X376985Y219805D01*
X377090Y219745D01*
X377197Y219687D01*
X377305Y219634D01*
X377415Y219584D01*
X377527Y219538D01*
X377640Y219495D01*
X377755Y219456D01*
X380351Y224973D02*
X380273Y225052D01*
X380193Y225128D01*
X380110Y225201D01*
X380024Y225271D01*
X379937Y225338D01*
X379846Y225402D01*
X379754Y225462D01*
X379660Y225520D01*
X379563Y225574D01*
X379465Y225624D01*
X379365Y225671D01*
X379264Y225715D01*
X379161Y225755D01*
X379056Y225791D01*
X378951Y225823D01*
X378844Y225852D01*
X378737Y225877D01*
X378628Y225899D01*
X378519Y225916D01*
X378410Y225930D01*
X378300Y225939D01*
X378189Y225945D01*
X378079Y225947D01*
X380351Y224973D02*
X386842Y219456D01*
X386842Y225947D01*
X348742Y374199D02*
X337058Y374199D01*
X337058Y377444D02*
X337058Y370953D01*
X337058Y382171D02*
X348742Y382171D01*
X337058Y382171D02*
X337058Y385417D01*
X337060Y385530D01*
X337066Y385643D01*
X337076Y385756D01*
X337090Y385869D01*
X337107Y385981D01*
X337129Y386092D01*
X337154Y386202D01*
X337184Y386312D01*
X337217Y386420D01*
X337254Y386527D01*
X337294Y386633D01*
X337339Y386737D01*
X337387Y386840D01*
X337438Y386941D01*
X337493Y387040D01*
X337551Y387137D01*
X337613Y387232D01*
X337678Y387325D01*
X337746Y387415D01*
X337817Y387503D01*
X337892Y387589D01*
X337969Y387672D01*
X338049Y387752D01*
X338132Y387829D01*
X338218Y387904D01*
X338306Y387975D01*
X338396Y388043D01*
X338489Y388108D01*
X338584Y388170D01*
X338681Y388228D01*
X338780Y388283D01*
X338881Y388334D01*
X338984Y388382D01*
X339088Y388427D01*
X339194Y388467D01*
X339301Y388504D01*
X339409Y388537D01*
X339519Y388567D01*
X339629Y388592D01*
X339740Y388614D01*
X339852Y388631D01*
X339965Y388645D01*
X340078Y388655D01*
X340191Y388661D01*
X340304Y388663D01*
X340417Y388661D01*
X340530Y388655D01*
X340643Y388645D01*
X340756Y388631D01*
X340868Y388614D01*
X340979Y388592D01*
X341089Y388567D01*
X341199Y388537D01*
X341307Y388504D01*
X341414Y388467D01*
X341520Y388427D01*
X341624Y388382D01*
X341727Y388334D01*
X341828Y388283D01*
X341927Y388228D01*
X342024Y388170D01*
X342119Y388108D01*
X342212Y388043D01*
X342302Y387975D01*
X342390Y387904D01*
X342476Y387829D01*
X342559Y387752D01*
X342639Y387672D01*
X342716Y387589D01*
X342791Y387503D01*
X342862Y387415D01*
X342930Y387325D01*
X342995Y387232D01*
X343057Y387137D01*
X343115Y387040D01*
X343170Y386941D01*
X343221Y386840D01*
X343269Y386737D01*
X343314Y386633D01*
X343354Y386527D01*
X343391Y386420D01*
X343424Y386312D01*
X343454Y386202D01*
X343479Y386092D01*
X343501Y385981D01*
X343518Y385869D01*
X343532Y385756D01*
X343542Y385643D01*
X343548Y385530D01*
X343550Y385417D01*
X343549Y385417D02*
X343549Y382171D01*
X348742Y393051D02*
X348742Y396296D01*
X348740Y396409D01*
X348734Y396522D01*
X348724Y396635D01*
X348710Y396748D01*
X348693Y396860D01*
X348671Y396971D01*
X348646Y397081D01*
X348616Y397191D01*
X348583Y397299D01*
X348546Y397406D01*
X348506Y397512D01*
X348461Y397616D01*
X348413Y397719D01*
X348362Y397820D01*
X348307Y397919D01*
X348249Y398016D01*
X348187Y398111D01*
X348122Y398204D01*
X348054Y398294D01*
X347983Y398382D01*
X347908Y398468D01*
X347831Y398551D01*
X347751Y398631D01*
X347668Y398708D01*
X347582Y398783D01*
X347494Y398854D01*
X347404Y398922D01*
X347311Y398987D01*
X347216Y399049D01*
X347119Y399107D01*
X347020Y399162D01*
X346919Y399213D01*
X346816Y399261D01*
X346712Y399306D01*
X346606Y399346D01*
X346499Y399383D01*
X346391Y399416D01*
X346281Y399446D01*
X346171Y399471D01*
X346060Y399493D01*
X345948Y399510D01*
X345835Y399524D01*
X345722Y399534D01*
X345609Y399540D01*
X345496Y399542D01*
X345383Y399540D01*
X345270Y399534D01*
X345157Y399524D01*
X345044Y399510D01*
X344932Y399493D01*
X344821Y399471D01*
X344711Y399446D01*
X344601Y399416D01*
X344493Y399383D01*
X344386Y399346D01*
X344280Y399306D01*
X344176Y399261D01*
X344073Y399213D01*
X343972Y399162D01*
X343873Y399107D01*
X343776Y399049D01*
X343681Y398987D01*
X343588Y398922D01*
X343498Y398854D01*
X343410Y398783D01*
X343324Y398708D01*
X343241Y398631D01*
X343161Y398551D01*
X343084Y398468D01*
X343009Y398382D01*
X342938Y398294D01*
X342870Y398204D01*
X342805Y398111D01*
X342743Y398016D01*
X342685Y397919D01*
X342630Y397820D01*
X342579Y397719D01*
X342531Y397616D01*
X342486Y397512D01*
X342446Y397406D01*
X342409Y397299D01*
X342376Y397191D01*
X342346Y397081D01*
X342321Y396971D01*
X342299Y396860D01*
X342282Y396748D01*
X342268Y396635D01*
X342258Y396522D01*
X342252Y396409D01*
X342250Y396296D01*
X337058Y396946D02*
X337058Y393051D01*
X337058Y396946D02*
X337060Y397047D01*
X337066Y397147D01*
X337076Y397247D01*
X337089Y397347D01*
X337107Y397446D01*
X337128Y397545D01*
X337153Y397642D01*
X337182Y397739D01*
X337215Y397834D01*
X337251Y397928D01*
X337291Y398020D01*
X337334Y398111D01*
X337381Y398200D01*
X337431Y398287D01*
X337485Y398373D01*
X337542Y398456D01*
X337602Y398536D01*
X337665Y398615D01*
X337732Y398691D01*
X337801Y398764D01*
X337873Y398834D01*
X337947Y398902D01*
X338024Y398967D01*
X338104Y399028D01*
X338186Y399087D01*
X338270Y399142D01*
X338356Y399194D01*
X338444Y399243D01*
X338534Y399288D01*
X338626Y399330D01*
X338719Y399368D01*
X338814Y399402D01*
X338909Y399433D01*
X339006Y399460D01*
X339104Y399483D01*
X339203Y399503D01*
X339303Y399518D01*
X339403Y399530D01*
X339503Y399538D01*
X339604Y399542D01*
X339704Y399542D01*
X339805Y399538D01*
X339905Y399530D01*
X340005Y399518D01*
X340105Y399503D01*
X340204Y399483D01*
X340302Y399460D01*
X340399Y399433D01*
X340494Y399402D01*
X340589Y399368D01*
X340682Y399330D01*
X340774Y399288D01*
X340864Y399243D01*
X340952Y399194D01*
X341038Y399142D01*
X341122Y399087D01*
X341204Y399028D01*
X341284Y398967D01*
X341361Y398902D01*
X341435Y398834D01*
X341507Y398764D01*
X341576Y398691D01*
X341643Y398615D01*
X341706Y398536D01*
X341766Y398456D01*
X341823Y398373D01*
X341877Y398287D01*
X341927Y398200D01*
X341974Y398111D01*
X342017Y398020D01*
X342057Y397928D01*
X342093Y397834D01*
X342126Y397739D01*
X342155Y397642D01*
X342180Y397545D01*
X342201Y397446D01*
X342219Y397347D01*
X342232Y397247D01*
X342242Y397147D01*
X342248Y397047D01*
X342250Y396946D01*
X342251Y396946D02*
X342251Y394349D01*
M02*
